<?xml version="1.0" encoding="UTF-8"?>
<!DOCTYPE svg PUBLIC "-//W3C//DTD SVG 1.1//EN" "http://www.w3.org/Graphics/SVG/1.1/DTD/svg11.dtd">
<!-- Creator: CorelDRAW 2018 (64 Bit Versão de avaliação) -->
<svg xmlns="http://www.w3.org/2000/svg" xml:space="preserve" width="57.1399mm" height="31.7757mm" version="1.1" style="shape-rendering:geometricPrecision; text-rendering:geometricPrecision; image-rendering:optimizeQuality; fill-rule:evenodd; clip-rule:evenodd"
viewBox="0 0 4740.91 2636.44"
 xmlns:xlink="http://www.w3.org/1999/xlink">
 <defs>
  <style type="text/css">
   <![CDATA[
    .fil0 {fill:#003399;fill-rule:nonzero}
   ]]>
  </style>
 </defs>
 <g id="Camada_x0020_1">
  <metadata id="CorelCorpID_0Corel-Layer"/>
  <path class="fil0" d="M1276.96 1940.92l-285.87 0 0 -113.57c-113.57,86.88 -234.42,130.56 -362.55,130.56 -147.06,0 -279.08,-49.02 -396.53,-146.58 -69.4,-56.79 -124.25,-127.17 -165.02,-210.16 -44.65,-90.27 -66.98,-183.46 -66.98,-280.53 0,-123.77 34.46,-239.28 103.87,-345.57 65.52,-100.47 151.91,-176.67 260.14,-228.6 89.3,-43.68 182.49,-65.52 280.05,-65.52 145.11,0 277.14,45.14 395.56,134.93 123.28,95.13 198.02,220.84 224.72,377.12 8.26,49.99 12.62,131.53 12.62,244.62l0 503.31zm-627.07 -979.92c-105.32,0 -193.66,37.37 -265.97,112.61 -65.53,66.97 -98.05,149.49 -98.05,247.04 0,106.29 38.34,194.62 115.03,265 67.46,61.64 149.01,92.22 244.61,92.22 108.24,0 197.54,-38.34 267.43,-115.03 58.73,-65.52 88.34,-143.17 88.34,-233.45 0,-117.45 -41.26,-212.59 -123.77,-284.41 -63.58,-53.88 -139.3,-82.02 -227.63,-83.97zm878.97 1675.43l0 -1198.82c0,-124.26 6.8,-218.41 20.39,-282.47 14.07,-64.07 40.28,-127.17 79.11,-189.78 59.7,-93.67 144.15,-166.96 253.36,-218.89 89.78,-43.68 183.46,-65.52 280.04,-65.52 174.25,0 324.7,62.13 450.89,186.38 128.61,126.19 193.17,277.13 193.17,453.32 0,134.93 -40.77,259.17 -122.31,372.75 -72.81,103.38 -170.84,177.64 -292.67,223.26 -73.29,27.67 -144.15,41.26 -213.56,41.26 -128.13,0 -248.99,-43.68 -362.56,-130.56l0 809.08 -285.87 0zm629.98 -1675.43c-101.44,0 -187.35,36.89 -257.72,111.15 -64.55,67.95 -96.59,149.97 -96.59,246.07 0,112.6 38.35,202.87 115.03,269.85 67.46,59.7 146.58,89.79 237.83,89.79 112.6,0 203.84,-39.31 272.76,-117.94 59.7,-67.46 89.79,-147.06 89.79,-239.28 0,-109.69 -41.25,-200.45 -123.77,-271.31 -66.49,-57.76 -145.6,-87.36 -237.34,-88.33zm2034.59 577.56c-29.12,80.57 -69.89,149.98 -122.31,207.73 -59.7,66.01 -132.01,118.43 -217.43,156.28 -83.48,36.89 -168.42,55.33 -254.33,55.33 -163.08,0 -306.73,-57.27 -430.99,-172.3 -138.33,-127.64 -207.73,-283.93 -207.73,-468.85 0,-91.24 19.42,-178.61 58.25,-262.57 38.83,-83.97 93.67,-156.77 163.56,-218.41 117.46,-103.38 255.78,-154.83 415.46,-154.83 178.12,0 328.58,62.61 451.86,187.84 50.48,50.96 90.27,108.23 120.36,171.33 29.6,63.1 44.65,121.82 44.65,175.7 0,74.75 -27.19,132.98 -81.05,174.73 -27.67,20.87 -55.81,34.46 -85.43,40.76 -29.12,6.31 -79.11,9.23 -149,9.23l-634.36 0c24.75,71.83 67.94,129.59 130.07,172.79 62.13,43.19 131.53,64.55 208.21,64.55 116,0 211.13,-46.6 285.87,-139.3l304.32 0zm-260.14 -350.91c-23.79,-68.43 -65.53,-123.28 -125.23,-164.53 -59.7,-41.26 -127.16,-62.13 -203.36,-62.13 -75.71,0 -143.17,19.9 -202.39,59.7 -59.22,40.28 -103.87,95.61 -132.99,166.96l663.97 0zm807.62 753.26l-285.87 0 0 -1940.92 285.87 0 0 1940.92z"/>
 </g>
</svg>
