<?xml version="1.0" encoding="UTF-8"?>
<!DOCTYPE svg PUBLIC "-//W3C//DTD SVG 1.1//EN" "http://www.w3.org/Graphics/SVG/1.1/DTD/svg11.dtd">
<!-- Creator: CorelDRAW 2018 (64 Bit Versão de avaliação) -->
<svg xmlns="http://www.w3.org/2000/svg" xml:space="preserve" width="30.4575mm" height="16.9375mm" version="1.1" style="shape-rendering:geometricPrecision; text-rendering:geometricPrecision; image-rendering:optimizeQuality; fill-rule:evenodd; clip-rule:evenodd"
viewBox="0 0 1233.83 686.14"
 xmlns:xlink="http://www.w3.org/1999/xlink">
 <defs>
  <style type="text/css">
   <![CDATA[
    .fil0 {fill:white;fill-rule:nonzero}
   ]]>
  </style>
 </defs>
 <g id="Camada_x0020_1">
  <metadata id="CorelCorpID_0Corel-Layer"/>
  <path class="fil0" d="M332.33 505.13l-74.4 0 0 -29.56c-29.56,22.61 -61.01,33.98 -94.36,33.98 -38.27,0 -72.63,-12.76 -103.2,-38.15 -18.06,-14.78 -32.34,-33.09 -42.95,-54.69 -11.62,-23.5 -17.43,-47.75 -17.43,-73.01 0,-32.21 8.97,-62.27 27.03,-89.94 17.05,-26.15 39.53,-45.97 67.7,-59.49 23.24,-11.37 47.49,-17.05 72.88,-17.05 37.77,0 72.13,11.74 102.95,35.11 32.08,24.76 51.53,57.47 58.48,98.14 2.15,13.01 3.29,34.23 3.29,63.67l0 130.98zm-163.2 -255.03c-27.41,0 -50.4,9.73 -69.22,29.3 -17.05,17.43 -25.52,38.91 -25.52,64.29 0,27.66 9.98,50.65 29.94,68.97 17.56,16.04 38.78,24 63.66,24 28.17,0 51.41,-9.98 69.6,-29.94 15.28,-17.05 22.99,-37.26 22.99,-60.76 0,-30.56 -10.74,-55.32 -32.21,-74.02 -16.55,-14.02 -36.25,-21.34 -59.24,-21.85zm228.76 436.04l0 -312c0,-32.34 1.77,-56.84 5.3,-73.51 3.67,-16.68 10.49,-33.1 20.59,-49.39 15.54,-24.38 37.52,-43.45 65.94,-56.97 23.37,-11.37 47.75,-17.05 72.88,-17.05 45.35,0 84.5,16.17 117.35,48.5 33.47,32.84 50.27,72.12 50.27,117.98 0,35.12 -10.61,67.45 -31.83,97.01 -18.95,26.91 -44.46,46.23 -76.17,58.1 -19.07,7.2 -37.51,10.74 -55.58,10.74 -33.35,0 -64.8,-11.37 -94.36,-33.98l0 210.57 -74.4 0zm163.96 -436.04c-26.4,0 -48.76,9.6 -67.07,28.93 -16.8,17.68 -25.14,39.03 -25.14,64.04 0,29.3 9.98,52.8 29.94,70.23 17.56,15.54 38.14,23.37 61.89,23.37 29.3,0 53.05,-10.23 70.99,-30.69 15.54,-17.56 23.37,-38.28 23.37,-62.28 0,-28.55 -10.74,-52.16 -32.21,-70.61 -17.3,-15.03 -37.89,-22.74 -61.77,-22.99zm529.51 150.32c-7.58,20.96 -18.19,39.03 -31.83,54.06 -15.54,17.18 -34.36,30.82 -56.59,40.67 -21.73,9.6 -43.83,14.4 -66.19,14.4 -42.44,0 -79.83,-14.91 -112.17,-44.84 -36,-33.22 -54.06,-73.89 -54.06,-122.02 0,-23.75 5.05,-46.49 15.16,-68.34 10.1,-21.85 24.37,-40.8 42.56,-56.84 30.57,-26.91 66.57,-40.3 108.13,-40.3 46.36,0 85.52,16.29 117.6,48.88 13.14,13.26 23.49,28.17 31.33,44.59 7.7,16.42 11.62,31.7 11.62,45.72 0,19.45 -7.07,34.61 -21.09,45.47 -7.2,5.43 -14.53,8.97 -22.23,10.61 -7.58,1.64 -20.59,2.4 -38.78,2.4l-165.09 0c6.45,18.7 17.68,33.72 33.85,44.97 16.17,11.24 34.23,16.8 54.19,16.8 30.19,0 54.95,-12.13 74.4,-36.25l79.2 0zm-67.7 -91.33c-6.19,-17.81 -17.05,-32.08 -32.59,-42.82 -15.54,-10.74 -33.09,-16.17 -52.93,-16.17 -19.7,0 -37.26,5.18 -52.68,15.54 -15.41,10.48 -27.03,24.88 -34.61,43.45l172.8 0zm210.18 196.04l-74.4 0 0 -505.13 74.4 0 0 505.13z"/>
 </g>
</svg>
