<?xml version="1.0" encoding="UTF-8"?>
<!DOCTYPE svg PUBLIC "-//W3C//DTD SVG 1.1//EN" "http://www.w3.org/Graphics/SVG/1.1/DTD/svg11.dtd">
<!-- Creator: CorelDRAW 2018 (64 Bit Versão de avaliação) -->
<svg xmlns="http://www.w3.org/2000/svg" xml:space="preserve" width="30.4575mm" height="16.9375mm" version="1.1" style="shape-rendering:geometricPrecision; text-rendering:geometricPrecision; image-rendering:optimizeQuality; fill-rule:evenodd; clip-rule:evenodd"
viewBox="0 0 3459.4 1923.78"
 xmlns:xlink="http://www.w3.org/1999/xlink">
 <defs>
  <style type="text/css">
   <![CDATA[
    .fil0 {fill:#003399;fill-rule:nonzero}
   ]]>
  </style>
 </defs>
 <g id="Camada_x0020_1">
  <metadata id="CorelCorpID_0Corel-Layer"/>
  <path class="fil0" d="M931.79 1416.27l-208.6 0 0 -82.87c-82.87,63.4 -171.05,95.27 -264.55,95.27 -107.3,0 -203.64,-35.77 -289.34,-106.96 -50.65,-41.43 -90.67,-92.78 -120.42,-153.35 -32.59,-65.88 -48.87,-133.88 -48.87,-204.71 0,-90.31 25.15,-174.6 75.79,-252.16 47.81,-73.31 110.84,-128.9 189.83,-166.81 65.16,-31.87 133.16,-47.81 204.34,-47.81 105.89,0 202.23,32.93 288.64,98.45 89.95,69.41 144.49,161.14 163.97,275.17 6.03,36.48 9.21,95.99 9.21,178.5l0 367.25zm-457.57 -715.04c-76.85,0 -141.31,27.27 -194.08,82.16 -47.82,48.87 -71.54,109.08 -71.54,180.26 0,77.56 27.99,142.02 83.95,193.37 49.23,44.98 108.72,67.3 178.49,67.3 78.97,0 144.13,-27.99 195.13,-83.95 42.85,-47.81 64.46,-104.47 64.46,-170.35 0,-85.7 -30.1,-155.12 -90.31,-207.54 -46.4,-39.31 -101.64,-59.85 -166.1,-61.27zm641.38 1222.55l0 -874.77c0,-90.67 4.95,-159.38 14.87,-206.12 10.28,-46.76 29.41,-92.8 57.73,-138.48 43.56,-68.35 105.19,-121.83 184.88,-159.73 65.51,-31.87 133.87,-47.81 204.34,-47.81 127.14,0 236.93,45.33 329.01,135.99 93.85,92.08 140.95,202.22 140.95,330.78 0,98.46 -29.75,189.12 -89.24,271.99 -53.13,75.44 -124.67,129.62 -213.57,162.91 -53.47,20.19 -105.18,30.11 -155.82,30.11 -93.5,0 -181.68,-31.87 -264.56,-95.27l0 590.38 -208.59 0zm459.7 -1222.55c-74.02,0 -136.71,26.92 -188.06,81.11 -47.1,49.58 -70.48,109.44 -70.48,179.55 0,82.16 27.98,148.04 83.94,196.92 49.23,43.56 106.95,65.53 173.53,65.53 82.16,0 148.75,-28.69 199.04,-86.06 43.56,-49.24 65.53,-107.32 65.53,-174.61 0,-80.04 -30.11,-146.26 -90.32,-197.97 -48.51,-42.15 -106.24,-63.75 -173.18,-64.46zm1484.62 421.45c-21.24,58.78 -51,109.42 -89.24,151.57 -43.56,48.17 -96.33,86.41 -158.66,114.04 -60.91,26.92 -122.89,40.38 -185.58,40.38 -119,0 -223.82,-41.8 -314.5,-125.73 -100.93,-93.14 -151.57,-207.17 -151.57,-342.11 0,-66.58 14.16,-130.33 42.5,-191.6 28.33,-61.27 68.34,-114.4 119.34,-159.37 85.71,-75.44 186.65,-112.98 303.16,-112.98 129.98,0 239.77,45.68 329.73,137.06 36.83,37.19 65.87,78.97 87.83,125.02 21.6,46.03 32.58,88.89 32.58,128.2 0,54.54 -19.83,97.04 -59.14,127.49 -20.18,15.23 -40.73,25.15 -62.33,29.75 -21.25,4.61 -57.72,6.74 -108.72,6.74l-462.89 0c18.07,52.42 49.58,94.56 94.92,126.08 45.33,31.52 95.98,47.11 151.93,47.11 84.65,0 154.06,-34.01 208.6,-101.64l222.05 0zm-189.82 -256.06c-17.36,-49.94 -47.82,-89.96 -91.38,-120.07 -43.56,-30.1 -92.78,-45.33 -148.39,-45.33 -55.25,0 -104.47,14.53 -147.69,43.57 -43.19,29.38 -75.78,69.76 -97.03,121.83l484.49 0zm589.31 549.64l-208.59 0 0 -1416.27 208.59 0 0 1416.27z"/>
 </g>
</svg>
