<?xml version="1.0" encoding="UTF-8"?>
<!DOCTYPE svg PUBLIC "-//W3C//DTD SVG 1.1//EN" "http://www.w3.org/Graphics/SVG/1.1/DTD/svg11.dtd">
<!-- Creator: CorelDRAW 2018 (64 Bit Versão de avaliação) -->
<svg xmlns="http://www.w3.org/2000/svg" xml:space="preserve" width="57.1399mm" height="31.7757mm" version="1.1" style="shape-rendering:geometricPrecision; text-rendering:geometricPrecision; image-rendering:optimizeQuality; fill-rule:evenodd; clip-rule:evenodd"
viewBox="0 0 4689.77 2608"
 xmlns:xlink="http://www.w3.org/1999/xlink">
 <defs>
  <style type="text/css">
   <![CDATA[
    .fil0 {fill:white;fill-rule:nonzero}
   ]]>
  </style>
 </defs>
 <g id="Camada_x0020_1">
  <metadata id="CorelCorpID_0Corel-Layer"/>
  <path class="fil0" d="M1263.19 1919.98l-282.79 0 0 -112.34c-112.34,85.94 -231.9,129.15 -358.64,129.15 -145.47,0 -276.07,-48.49 -392.25,-144.99 -68.66,-56.18 -122.91,-125.8 -163.24,-207.9 -44.17,-89.3 -66.26,-181.48 -66.26,-277.5 0,-122.43 34.09,-236.7 102.75,-341.84 64.81,-99.38 150.27,-174.76 257.34,-226.13 88.34,-43.2 180.52,-64.81 277.03,-64.81 143.55,0 274.15,44.65 391.29,133.47 121.95,94.1 195.89,218.46 222.29,373.05 8.17,49.45 12.48,130.11 12.48,241.98l0 497.88zm-620.31 -969.35c-104.19,0 -191.57,36.97 -263.1,111.39 -64.82,66.25 -96.99,147.87 -96.99,244.37 0,105.15 37.93,192.52 113.79,262.14 66.74,60.97 147.4,91.23 241.97,91.23 107.08,0 195.4,-37.93 264.54,-113.79 58.1,-64.81 87.39,-141.63 87.39,-230.93 0,-116.19 -40.82,-210.29 -122.43,-281.35 -62.89,-53.3 -137.8,-81.14 -225.17,-83.06zm869.49 1657.36l0 -1185.89c0,-122.92 6.72,-216.05 20.17,-279.42 13.92,-63.38 39.85,-125.8 78.26,-187.73 59.05,-92.65 142.6,-165.16 250.62,-216.53 88.81,-43.2 181.48,-64.81 277.02,-64.81 172.37,0 321.2,61.46 446.03,184.37 127.22,124.83 191.09,274.14 191.09,448.43 0,133.47 -40.33,256.38 -120.99,368.73 -72.02,102.27 -169,175.72 -289.51,220.85 -72.5,27.37 -142.6,40.82 -211.25,40.82 -126.75,0 -246.3,-43.21 -358.65,-129.15l0 800.36 -282.78 0zm623.19 -1657.36c-100.35,0 -185.33,36.49 -254.94,109.95 -63.85,67.22 -95.54,148.35 -95.54,243.42 0,111.38 37.94,200.68 113.79,266.94 66.74,59.05 145,88.82 235.26,88.82 111.38,0 201.64,-38.89 269.82,-116.67 59.05,-66.74 88.82,-145.48 88.82,-236.7 0,-108.5 -40.81,-198.29 -122.43,-268.39 -65.78,-57.13 -144.03,-86.42 -234.78,-87.38zm2012.65 571.33c-28.81,79.7 -69.14,148.36 -121,205.49 -59.05,65.3 -130.59,117.15 -215.09,154.6 -82.58,36.49 -166.6,54.74 -251.58,54.74 -161.32,0 -303.42,-56.66 -426.34,-170.45 -136.84,-126.26 -205.49,-280.87 -205.49,-463.79 0,-90.26 19.21,-176.68 57.62,-259.74 38.41,-83.06 92.66,-155.08 161.79,-216.05 116.19,-102.27 253.02,-153.16 410.98,-153.16 176.2,0 325.03,61.93 446.99,185.81 49.93,50.41 89.3,107.06 119.07,169.48 29.28,62.42 44.17,120.5 44.17,173.8 0,73.94 -26.9,131.55 -80.18,172.84 -27.37,20.64 -55.21,34.09 -84.5,40.32 -28.81,6.25 -78.26,9.13 -147.39,9.13l-627.51 0c24.48,71.05 67.21,128.19 128.67,170.92 61.46,42.73 130.11,63.85 205.97,63.85 114.75,0 208.86,-46.09 282.79,-137.8l301.04 0zm-257.34 -347.12c-23.53,-67.7 -64.82,-121.95 -123.88,-162.76 -59.05,-40.82 -125.79,-61.46 -201.17,-61.46 -74.89,0 -141.63,19.68 -200.21,59.05 -58.58,39.85 -102.75,94.58 -131.56,165.16l656.81 0zm798.9 745.14l-282.79 0 0 -1919.98 282.79 0 0 1919.98z"/>
 </g>
</svg>
